# xmcd
#
# Track frame offsets: 
#        150
#        15258
#        30363
#        47468
#        68375
#        83433
#        104163
#        121688
#        134955
#        158903
#        185428
#        210348
#        238825
#
# Disc length: 3568 seconds
#
# Revision: 1
# Processed by: cddbd v1.5.2PL0 Copyright (c) Steve Scherf et al.
# Submitted via: ExactAudioCopy v0.99pb4
#
DISCID=9c0dee0d
DTITLE=Various Artist - Latin aperitivo ~brazilian blend~
DYEAR=2005
DGENRE=Club
TTITLE0=BOSSA NOSTRA feat. BRUNA LOPPEZ/Apocalypso(Pastaboys rmx)
TTITLE1=UNITED PEACE VOICES/Gangehen Gompa
TTITLE2=MYSTERIOUS TRAVELLER/Tropical Wave
TTITLE3=DIRTY WORX feat. BARBARA MENDES/Ipanema Girl
TTITLE4=KALEIDOSCOPIOFlor De Lis
TTITLE5=DJ RODRIGUEZ feat. BRUNA LOPEZ/Bota Pra Quebar
TTITLE6=MONTEFIORI COCKTAIL/Conversazione
TTITLE7=MONTEFIORI COCKTAIL/One Note Samba
TTITLE8=BANDA FAVELA/O Amanheer Do Novo Dia
TTITLE9=ITHAMARA KOORAX/Coco Penerue
TTITLE10=RIOVORT/Cresce Lentamente(Physics under the sun mix)
TTITLE11=MONTEFIORI COCKTAIL/Sofisticata(Nicola Conte soft samba strin
TTITLE11=gs rmx)
TTITLE12=CIRQUE DU SOLEIL/Emballa(Louie Vega feat. Jaffa album mix)
EXTD=YEAR: 2005
EXTT0=
EXTT1=
EXTT2=
EXTT3=
EXTT4=
EXTT5=
EXTT6=
EXTT7=
EXTT8=
EXTT9=
EXTT10=
EXTT11=
EXTT12=
PLAYORDER=
